<svg width="21" height="21" viewBox="0 0 21 21" fill="none" xmlns="http://www.w3.org/2000/svg">
<circle cx="10.4744" cy="10.359" r="9.88463" fill="white"/>
<path d="M10.4306 7.89879L10.7546 8.65661C10.7765 8.72251 10.8369 8.76095 10.8973 8.76644L11.7211 8.84332C11.8968 8.8598 11.9627 9.07396 11.8364 9.18928L11.2158 9.73294C11.1664 9.77687 11.1445 9.84277 11.1609 9.90317L11.3421 10.7104C11.3806 10.8807 11.1994 11.0124 11.0456 10.9246L10.3372 10.5017C10.2823 10.4688 10.2109 10.4688 10.156 10.5017L9.44759 10.9246C9.29932 11.0124 9.11261 10.8807 9.15105 10.7104L9.33227 9.90317C9.34874 9.84277 9.32678 9.77687 9.27735 9.73294L8.65682 9.18928C8.52502 9.07396 8.59641 8.8598 8.77214 8.84332L9.59586 8.76644C9.66176 8.76095 9.71667 8.72251 9.74413 8.6621L10.0681 7.90428C10.134 7.73954 10.3592 7.73954 10.4306 7.89879Z" stroke="#F0C932" stroke-width="0.549146" stroke-miterlimit="10" stroke-linecap="round" stroke-linejoin="round"/>
<path d="M13.9821 9.50485C13.9962 7.44252 12.3359 5.75915 10.2736 5.74496C8.21122 5.73077 6.52785 7.39112 6.51366 9.45346C6.49947 11.5158 8.15982 13.1992 10.2222 13.2134C12.2845 13.2275 13.9679 11.5672 13.9821 9.50485Z" stroke="#F0C932" stroke-width="0.549146" stroke-miterlimit="10" stroke-linecap="round" stroke-linejoin="round"/>
<path d="M9.73861 13.1761L8.81055 15.51L7.63538 14.1645L5.86163 14.3293L7.03681 11.3859" stroke="#F0C932" stroke-width="0.549146" stroke-miterlimit="10" stroke-linecap="round" stroke-linejoin="round"/>
<path d="M10.7491 13.1761L11.6826 15.51L12.8523 14.1645L14.6315 14.3293L13.4509 11.3859" stroke="#F0C932" stroke-width="0.549146" stroke-miterlimit="10" stroke-linecap="round" stroke-linejoin="round"/>
</svg>
